<svg xmlns="http://www.w3.org/2000/svg" xmlns:xlink="http://www.w3.org/1999/xlink" width="100" zoomAndPan="magnify" viewBox="0 0 75 74.999997" height="100" preserveAspectRatio="xMidYMid meet" version="1.0"><defs><clipPath id="id1"><path d="M 10 12.300781 L 67 12.300781 L 67 62.550781 L 10 62.550781 Z M 10 12.300781 " clip-rule="nonzero"/></clipPath></defs><rect x="-7.5" width="90" fill="#ffffff" y="-7.5" height="89.999996" fill-opacity="1"/><rect x="-7.5" width="90" fill="#ffffff" y="-7.5" height="89.999996" fill-opacity="1"/><rect x="-7.5" width="90" fill="#ffffff" y="-7.5" height="89.999996" fill-opacity="1"/><rect x="-7.5" width="90" fill="#ffffff" y="-7.5" height="89.999996" fill-opacity="1"/><g clip-path="url(#id1)"><path fill="#005994" d="M 65.066406 58.335938 C 63.125 61.152344 60.050781 61.730469 56.867188 61.839844 C 49.691406 62.09375 42.507812 60.917969 35.320312 61.039062 C 31.550781 61.097656 27.789062 61.347656 24.023438 61.539062 C 21.355469 61.671875 17.503906 62.554688 14.910156 61.664062 C 10.90625 60.289062 7.59375 49.472656 13.390625 48.378906 C 17.363281 47.632812 17.390625 52.46875 20.773438 52.875 C 21.964844 53.019531 22.925781 52.660156 23.730469 52.019531 C 22.90625 51.429688 22.339844 50.652344 22.339844 49.628906 C 22.339844 40.558594 31.214844 40.007812 31.214844 40.007812 C 31.265625 39.949219 31.316406 39.894531 31.371094 39.839844 C 29.808594 39.320312 28.367188 38.472656 27.039062 37.3125 C 24.890625 35.441406 24.015625 33.371094 23.976562 30.589844 C 23.941406 27.960938 24.746094 25.292969 26.132812 23.058594 C 25.75 22.894531 25.367188 22.730469 24.992188 22.546875 C 24.058594 22.09375 23.203125 21.460938 22.679688 20.546875 C 21.554688 18.578125 22.269531 16.082031 23.554688 14.382812 C 24.191406 13.53125 25.023438 12.816406 26.082031 12.5625 C 27.1875 12.300781 28.40625 12.683594 29.324219 13.304688 C 30.191406 13.890625 30.890625 14.6875 31.46875 15.558594 C 31.765625 16.007812 32.027344 16.503906 32.214844 17.011719 C 32.277344 17.171875 32.320312 17.332031 32.351562 17.5 C 32.492188 17.445312 32.632812 17.394531 32.773438 17.339844 C 32.792969 17.335938 32.8125 17.328125 32.832031 17.324219 C 34.003906 16.488281 35.332031 16.015625 36.792969 15.820312 C 39.039062 15.519531 41.382812 15.714844 43.46875 16.5625 C 43.496094 16.488281 43.527344 16.414062 43.558594 16.339844 C 43.957031 15.363281 44.59375 14.472656 45.367188 13.753906 C 46.386719 12.808594 47.492188 12.417969 48.871094 12.648438 C 49.890625 12.820312 50.964844 13.226562 51.804688 13.832031 C 53.855469 15.3125 54.703125 18.132812 53.324219 20.375 C 52.6875 21.402344 51.632812 22.28125 50.636719 22.949219 C 50.410156 23.097656 50.167969 23.230469 49.925781 23.355469 C 50.269531 24.058594 50.578125 24.765625 50.863281 25.457031 C 52.0625 28.382812 52.332031 31.714844 50.757812 34.566406 C 49.445312 36.945312 47.035156 38.570312 44.53125 39.519531 C 44.757812 39.695312 44.980469 39.894531 45.203125 40.128906 C 45.152344 40.050781 45.121094 40.007812 45.121094 40.007812 C 45.121094 40.007812 54 40.558594 54 49.628906 C 54 50.496094 53.59375 51.1875 52.96875 51.734375 C 53.078125 51.757812 53.191406 51.785156 53.308594 51.8125 C 54.640625 52.113281 56.5 51.992188 57.75 51.476562 C 59.972656 50.558594 61.839844 47.199219 64.691406 49.289062 C 67.414062 51.285156 66.730469 55.925781 65.066406 58.335938 " fill-opacity="1" fill-rule="nonzero"/></g><path fill="#397dc9" d="M 44.046875 52.6875 C 42.898438 54.199219 40.976562 56.789062 39.003906 56.695312 C 36.832031 56.589844 33.980469 54.148438 32.53125 52.664062 C 32.503906 52.636719 32.476562 52.605469 32.449219 52.578125 C 33.328125 51.957031 34.035156 51.160156 34.035156 50.40625 C 34.035156 46.574219 32.097656 47.171875 29.9375 46.527344 C 30.113281 44.714844 31.269531 42.964844 33.167969 42.617188 C 35.0625 42.273438 36.902344 43.59375 38.164062 44.859375 C 39.164062 45.867188 38.835938 45.609375 39.878906 44.773438 C 40.738281 44.082031 41.871094 43.574219 42.976562 43.464844 C 43.851562 43.378906 44.785156 43.507812 45.480469 44.085938 C 45.890625 44.429688 46.136719 44.804688 46.328125 45.199219 C 46.511719 45.578125 46.636719 45.980469 46.707031 46.386719 C 46.652344 46.417969 46.597656 46.445312 46.535156 46.464844 C 44.238281 47.3125 42.300781 46.363281 42.300781 50.40625 C 42.300781 51.207031 43.09375 52.050781 44.046875 52.6875 " fill-opacity="1" fill-rule="nonzero"/><path fill="#ffffff" d="M 43.703125 39.914062 C 43.441406 40.402344 43.054688 40.570312 42.632812 40.710938 C 42.714844 40.792969 42.796875 40.871094 42.886719 40.941406 C 43.011719 41.070312 43.132812 41.183594 43.210938 41.34375 C 43.390625 41.726562 43.261719 42.144531 42.953125 42.414062 C 42.710938 42.625 42.246094 42.933594 41.917969 42.960938 C 41.414062 43.007812 41.011719 42.601562 40.667969 42.296875 C 40.203125 41.890625 39.296875 41.242188 38.964844 40.535156 C 38.921875 40.636719 38.859375 40.730469 38.785156 40.804688 C 38.632812 40.953125 38.410156 41.046875 38.199219 41.046875 C 37.972656 41.046875 37.773438 40.953125 37.609375 40.804688 C 37.550781 40.75 37.5 40.675781 37.460938 40.601562 C 36.941406 41.824219 35.875 43.273438 34.289062 42.449219 C 33.28125 41.929688 33.535156 41.152344 34.144531 40.480469 C 34.019531 40.402344 33.898438 40.304688 33.789062 40.175781 C 33.296875 39.597656 33.1875 38.730469 33.457031 38.074219 C 34.1875 36.269531 36.667969 38.25 37.480469 39.125 C 37.566406 39.214844 37.605469 39.304688 37.621094 39.390625 C 37.71875 39.191406 37.90625 39.039062 38.199219 39.039062 C 38.53125 39.039062 38.738281 39.242188 38.8125 39.488281 C 38.84375 39.558594 38.871094 39.628906 38.894531 39.703125 C 39.03125 39.34375 39.371094 39.097656 39.785156 38.9375 C 40.605469 38.070312 42.324219 36.820312 43.277344 37.875 C 43.769531 38.417969 44.066406 39.230469 43.703125 39.914062 " fill-opacity="1" fill-rule="nonzero"/><path fill="#ffffff" d="M 37.59375 39.1875 C 37.421875 39.160156 37.261719 39.273438 37.230469 39.441406 L 37.050781 40.472656 C 37.019531 40.644531 37.132812 40.804688 37.304688 40.835938 C 37.320312 40.835938 37.339844 40.839844 37.359375 40.839844 C 37.507812 40.839844 37.636719 40.730469 37.664062 40.582031 L 37.847656 39.546875 C 37.875 39.378906 37.761719 39.21875 37.59375 39.1875 Z M 38.964844 39.175781 C 38.792969 39.175781 38.652344 39.316406 38.652344 39.488281 L 38.652344 40.535156 C 38.652344 40.707031 38.792969 40.847656 38.964844 40.847656 C 39.136719 40.847656 39.277344 40.707031 39.277344 40.535156 L 39.277344 39.488281 C 39.277344 39.316406 39.136719 39.175781 38.964844 39.175781 Z M 45.175781 39.742188 C 45.140625 39.570312 44.976562 39.460938 44.808594 39.496094 C 44.476562 39.5625 44.140625 39.621094 43.800781 39.671875 C 43.777344 39.753906 43.746094 39.835938 43.703125 39.914062 C 43.597656 40.113281 43.472656 40.257812 43.332031 40.367188 C 43.875 40.296875 44.410156 40.210938 44.929688 40.105469 C 45.097656 40.074219 45.207031 39.910156 45.175781 39.742188 Z M 33.789062 40.175781 C 33.714844 40.09375 33.65625 40.003906 33.597656 39.910156 C 32.1875 39.808594 31.28125 39.699219 31.253906 39.699219 C 31.082031 39.675781 30.925781 39.796875 30.90625 39.96875 C 30.882812 40.140625 31.003906 40.292969 31.175781 40.316406 C 31.207031 40.320312 32.347656 40.457031 34.070312 40.5625 C 34.09375 40.535156 34.117188 40.507812 34.144531 40.480469 C 34.019531 40.402344 33.898438 40.304688 33.789062 40.175781 Z M 52.632812 51.347656 C 51.992188 51.992188 51.042969 52.4375 49.808594 52.671875 C 47.574219 53.09375 45.148438 52.710938 43.152344 51.628906 C 43 51.546875 42.8125 51.601562 42.730469 51.753906 C 42.648438 51.902344 42.703125 52.09375 42.855469 52.175781 C 44.421875 53.027344 46.183594 53.46875 47.957031 53.46875 C 48.613281 53.46875 49.273438 53.40625 49.925781 53.285156 C 51.289062 53.027344 52.347656 52.523438 53.078125 51.785156 C 53.199219 51.664062 53.195312 51.464844 53.074219 51.34375 C 52.949219 51.222656 52.753906 51.226562 52.632812 51.347656 Z M 33.015625 52.035156 C 32.863281 51.953125 32.675781 52.007812 32.589844 52.15625 C 31.960938 53.296875 30.382812 53.515625 29.734375 53.554688 C 27.773438 53.679688 25.746094 53.070312 24.179688 51.890625 C 24.042969 51.789062 23.847656 51.816406 23.742188 51.953125 C 23.636719 52.089844 23.664062 52.285156 23.804688 52.386719 C 25.34375 53.550781 27.296875 54.195312 29.234375 54.195312 C 29.414062 54.195312 29.59375 54.1875 29.773438 54.179688 C 31.359375 54.078125 32.585938 53.453125 33.136719 52.460938 C 33.222656 52.308594 33.167969 52.121094 33.015625 52.035156 Z M 41.777344 30.453125 C 41.480469 30.757812 41.074219 30.941406 40.671875 30.957031 C 40.257812 30.976562 39.851562 30.8125 39.589844 30.519531 C 39.421875 30.335938 39.292969 30.09375 39.183594 29.75 C 39.070312 29.402344 39.003906 29.039062 38.964844 28.675781 C 39.738281 28.460938 40.242188 27.714844 40.207031 26.867188 C 40.160156 25.792969 38.773438 25.585938 37.953125 25.832031 C 37.507812 25.960938 37.066406 26.25 36.898438 26.695312 C 36.863281 26.789062 36.839844 26.886719 36.832031 26.980469 C 36.808594 27.03125 36.789062 27.078125 36.773438 27.128906 C 36.535156 28.035156 37.402344 28.601562 38.207031 28.71875 C 38.164062 29.066406 38.101562 29.414062 37.992188 29.75 C 37.882812 30.09375 37.753906 30.335938 37.585938 30.519531 C 37.324219 30.8125 36.917969 30.976562 36.503906 30.957031 C 36.101562 30.941406 35.699219 30.757812 35.398438 30.453125 C 35.277344 30.328125 35.078125 30.328125 34.957031 30.445312 C 34.832031 30.566406 34.832031 30.765625 34.953125 30.886719 C 35.359375 31.304688 35.917969 31.558594 36.476562 31.582031 C 36.503906 31.582031 36.53125 31.582031 36.558594 31.582031 C 37.128906 31.582031 37.679688 31.34375 38.050781 30.9375 C 38.277344 30.6875 38.449219 30.371094 38.589844 29.9375 C 38.726562 30.371094 38.898438 30.6875 39.125 30.9375 C 39.511719 31.363281 40.101562 31.601562 40.699219 31.582031 C 41.257812 31.558594 41.816406 31.304688 42.226562 30.886719 C 42.34375 30.765625 42.34375 30.566406 42.21875 30.445312 C 42.097656 30.328125 41.898438 30.328125 41.777344 30.453125 Z M 45.710938 17.320312 C 45.847656 17.429688 46.042969 17.40625 46.152344 17.273438 C 46.546875 16.777344 47.011719 16.34375 47.527344 15.980469 C 48.09375 15.582031 48.574219 15.417969 48.992188 15.472656 C 49.554688 15.546875 50.058594 16.085938 50.171875 16.726562 C 50.273438 17.3125 50.101562 17.984375 49.679688 18.613281 C 49.285156 19.203125 48.734375 19.699219 48.199219 20.175781 C 48.070312 20.289062 48.058594 20.488281 48.175781 20.613281 C 48.238281 20.683594 48.324219 20.71875 48.410156 20.71875 C 48.484375 20.71875 48.558594 20.691406 48.617188 20.640625 C 49.179688 20.136719 49.761719 19.613281 50.199219 18.957031 C 50.710938 18.195312 50.917969 17.363281 50.789062 16.617188 C 50.628906 15.707031 49.90625 14.964844 49.074219 14.851562 C 48.492188 14.777344 47.867188 14.976562 47.167969 15.472656 C 46.601562 15.867188 46.09375 16.34375 45.664062 16.882812 C 45.554688 17.015625 45.578125 17.214844 45.710938 17.320312 Z M 26.597656 21.183594 C 26.648438 21.214844 26.703125 21.226562 26.757812 21.226562 C 26.867188 21.226562 26.96875 21.175781 27.027344 21.078125 C 27.117188 20.929688 27.070312 20.738281 26.921875 20.648438 C 26.121094 20.171875 25.523438 19.503906 25.226562 18.765625 C 24.902344 17.957031 24.964844 17.042969 25.382812 16.378906 C 25.828125 15.679688 26.695312 15.296875 27.441406 15.472656 C 27.898438 15.578125 28.3125 15.875 28.652344 16.152344 C 29.371094 16.734375 30.011719 17.402344 30.558594 18.144531 C 30.664062 18.28125 30.859375 18.3125 30.996094 18.207031 C 31.136719 18.105469 31.164062 17.910156 31.0625 17.773438 C 30.484375 16.992188 29.804688 16.28125 29.046875 15.667969 C 28.648438 15.347656 28.164062 15 27.582031 14.863281 C 26.585938 14.632812 25.441406 15.128906 24.855469 16.046875 C 24.332031 16.875 24.25 18.003906 24.648438 18.996094 C 24.992188 19.859375 25.683594 20.636719 26.597656 21.183594 Z M 41.195312 22.769531 C 41.195312 22.769531 41.195312 22.773438 41.195312 22.773438 C 40.480469 23.046875 40.519531 24.320312 41.03125 24.789062 C 41.5 25.21875 42.152344 24.921875 42.347656 24.382812 C 42.472656 24.046875 42.433594 23.640625 42.308594 23.308594 C 42.136719 22.847656 41.695312 22.464844 41.195312 22.769531 Z M 35.230469 24.992188 C 35.269531 25 35.308594 25.003906 35.347656 25.007812 C 35.421875 25 35.492188 24.988281 35.5625 24.980469 C 35.671875 24.957031 35.761719 24.90625 35.839844 24.835938 C 35.984375 24.722656 36.078125 24.589844 36.132812 24.414062 C 36.136719 24.398438 36.144531 24.382812 36.148438 24.367188 C 36.195312 24.253906 36.195312 24.125 36.164062 24.003906 C 36.179688 23.800781 36.15625 23.589844 36.097656 23.398438 C 35.996094 23.082031 35.742188 22.851562 35.410156 22.808594 C 35.355469 22.800781 35.304688 22.800781 35.25 22.804688 C 35.09375 22.777344 34.929688 22.792969 34.792969 22.847656 C 34.523438 22.964844 34.382812 23.1875 34.335938 23.457031 C 34.339844 23.4375 34.34375 23.414062 34.34375 23.390625 C 34.328125 23.484375 34.289062 23.574219 34.265625 23.664062 C 34.222656 23.851562 34.210938 24.054688 34.257812 24.242188 C 34.351562 24.582031 34.636719 24.886719 34.988281 24.96875 C 35.070312 24.988281 35.152344 24.996094 35.230469 24.992188 Z M 30.699219 46.398438 L 27.445312 45.222656 C 27.28125 45.164062 27.101562 45.246094 27.042969 45.40625 C 26.984375 45.570312 27.070312 45.75 27.230469 45.808594 L 30.484375 46.984375 C 30.519531 46.996094 30.554688 47.003906 30.589844 47.003906 C 30.71875 47.003906 30.839844 46.921875 30.886719 46.796875 C 30.945312 46.636719 30.859375 46.457031 30.699219 46.398438 Z M 49.570312 45.507812 L 46.472656 46.160156 C 46.304688 46.199219 46.195312 46.363281 46.230469 46.53125 C 46.261719 46.675781 46.390625 46.777344 46.535156 46.777344 C 46.558594 46.777344 46.578125 46.777344 46.601562 46.769531 L 49.699219 46.117188 C 49.867188 46.082031 49.972656 45.917969 49.9375 45.75 C 49.902344 45.582031 49.738281 45.472656 49.570312 45.507812 Z M 64.429688 50.84375 C 64.398438 50.835938 61.175781 50.167969 59.351562 53.730469 C 58.34375 55.703125 58.128906 57.714844 58.773438 59.105469 C 59.070312 59.742188 59.527344 60.175781 60.027344 60.292969 C 60.179688 60.328125 60.347656 60.34375 60.519531 60.34375 C 61.734375 60.34375 63.296875 59.574219 63.371094 59.535156 C 63.523438 59.457031 63.585938 59.269531 63.507812 59.117188 C 63.433594 58.964844 63.246094 58.902344 63.089844 58.976562 C 62.5625 59.242188 61.007812 59.882812 60.167969 59.683594 C 59.863281 59.613281 59.550781 59.296875 59.339844 58.84375 C 59.128906 58.386719 58.542969 56.6875 59.910156 54.015625 C 61.503906 50.894531 64.179688 51.425781 64.296875 51.453125 C 64.464844 51.488281 64.632812 51.382812 64.667969 51.214844 C 64.707031 51.046875 64.601562 50.878906 64.429688 50.84375 Z M 16.4375 54.445312 C 17.214844 57 17.269531 58.890625 16.597656 60.074219 C 16.160156 60.839844 15.578125 61.003906 15.515625 61.019531 C 15.488281 61.027344 15.464844 61.03125 15.4375 61.03125 C 15.300781 61.03125 15.171875 60.9375 15.136719 60.792969 C 15.09375 60.628906 15.195312 60.457031 15.363281 60.417969 C 15.375 60.414062 15.765625 60.296875 16.070312 59.738281 C 16.457031 59.027344 16.734375 57.5625 15.839844 54.628906 C 15.019531 51.9375 14.019531 51.070312 13.324219 50.820312 C 12.578125 50.546875 12.015625 50.90625 12.011719 50.910156 C 11.867188 51.003906 11.671875 50.964844 11.578125 50.820312 C 11.484375 50.675781 11.523438 50.480469 11.667969 50.386719 C 11.703125 50.367188 12.5 49.855469 13.535156 50.234375 C 14.742188 50.671875 15.71875 52.089844 16.4375 54.445312 " fill-opacity="1" fill-rule="nonzero"/><path fill="#ffffff" d="M 41.472656 53.394531 C 41.125 53.578125 40.839844 53.953125 40.574219 54.234375 C 40.273438 54.546875 39.976562 54.867188 39.671875 55.171875 C 39.464844 55.382812 39.769531 55.667969 39.992188 55.492188 C 40.347656 55.207031 40.703125 54.914062 41.03125 54.597656 C 41.316406 54.324219 41.652344 54.023438 41.808594 53.652344 C 41.890625 53.453125 41.628906 53.3125 41.472656 53.394531 Z M 35.839844 44.515625 C 35.632812 44.417969 35.429688 44.273438 35.199219 44.257812 C 35.027344 44.246094 34.851562 44.453125 34.921875 44.621094 C 35.023438 44.867188 35.269531 45.03125 35.5 45.15625 C 35.613281 45.222656 35.742188 45.269531 35.867188 45.304688 C 36.039062 45.351562 36.148438 45.328125 36.285156 45.21875 C 36.367188 45.152344 36.375 45.035156 36.359375 44.941406 C 36.316406 44.707031 36.035156 44.605469 35.839844 44.515625 Z M 32.378906 43.875 C 31.886719 44.183594 31.414062 44.703125 31.417969 45.3125 C 31.417969 45.480469 31.648438 45.597656 31.773438 45.457031 C 32.082031 45.105469 32.324219 44.738281 32.757812 44.519531 C 33.175781 44.3125 33.644531 44.402344 34.046875 44.210938 C 34.222656 44.132812 34.257812 43.84375 34.113281 43.722656 C 33.628906 43.324219 32.859375 43.574219 32.378906 43.875 Z M 42.167969 23.640625 C 42.175781 23.539062 42.167969 23.433594 42.136719 23.339844 C 42.085938 23.179688 41.957031 23.066406 41.792969 23.042969 C 41.765625 23.042969 41.738281 23.039062 41.710938 23.042969 C 41.632812 23.027344 41.550781 23.035156 41.484375 23.066406 C 41.347656 23.121094 41.28125 23.234375 41.253906 23.371094 C 41.257812 23.359375 41.257812 23.347656 41.261719 23.335938 C 41.25 23.382812 41.230469 23.425781 41.21875 23.472656 C 41.199219 23.566406 41.191406 23.667969 41.21875 23.761719 C 41.261719 23.929688 41.40625 24.082031 41.582031 24.125 C 41.621094 24.132812 41.664062 24.136719 41.703125 24.136719 C 41.722656 24.140625 41.742188 24.140625 41.761719 24.144531 C 41.796875 24.140625 41.832031 24.136719 41.871094 24.128906 C 41.921875 24.117188 41.96875 24.09375 42.007812 24.058594 C 42.078125 24.003906 42.125 23.933594 42.152344 23.847656 C 42.15625 23.839844 42.160156 23.832031 42.164062 23.824219 C 42.183594 23.765625 42.183594 23.703125 42.167969 23.640625 Z M 34.941406 23.761719 C 34.917969 23.667969 34.925781 23.566406 34.945312 23.472656 C 34.957031 23.425781 34.976562 23.382812 34.984375 23.335938 C 34.984375 23.347656 34.984375 23.359375 34.980469 23.371094 C 35.003906 23.234375 35.074219 23.121094 35.210938 23.066406 C 35.277344 23.035156 35.359375 23.027344 35.4375 23.042969 C 35.464844 23.039062 35.492188 23.042969 35.519531 23.042969 C 35.683594 23.066406 35.808594 23.179688 35.863281 23.339844 C 35.890625 23.433594 35.902344 23.539062 35.894531 23.640625 C 35.910156 23.703125 35.910156 23.765625 35.886719 23.824219 C 35.886719 23.832031 35.882812 23.839844 35.878906 23.847656 C 35.851562 23.933594 35.804688 24.003906 35.734375 24.058594 C 35.695312 24.09375 35.648438 24.117188 35.59375 24.128906 C 35.558594 24.136719 35.523438 24.140625 35.488281 24.144531 C 35.46875 24.140625 35.449219 24.140625 35.429688 24.136719 C 35.386719 24.136719 35.347656 24.132812 35.304688 24.125 C 35.132812 24.082031 34.988281 23.929688 34.941406 23.761719 " fill-opacity="1" fill-rule="nonzero"/></svg>